<svg xmlns="http://www.w3.org/2000/svg" width="24" height="24" viewBox="0 0 18 18" fill="none">
    <path fill="#4285F4" fill-rule="evenodd" clip-rule="evenodd"
          d="M17.64 8.99048C17.64 8.36714 17.5827 7.76777 17.4764 7.19238H9V10.5928H13.8436C13.635 11.6916 13.0009 12.6226 12.0477 13.246V15.4516H14.9564C16.6582 13.9213 17.64 11.6676 17.64 8.99048Z"/>
    <path fill="#34A853" fill-rule="evenodd" clip-rule="evenodd"
          d="M9 17.5814C11.43 17.5814 13.4673 16.7942 14.9564 15.4517L12.0477 13.246C11.2418 13.7734 10.2109 14.0851 9 14.0851C6.65591 14.0851 4.67182 12.5387 3.96409 10.4609H0.957275V12.7385C2.43818 15.6115 5.48182 17.5814 9 17.5814Z"/>
    <path fill="#FBBC05" fill-rule="evenodd" clip-rule="evenodd"
          d="M3.96409 10.4608C3.78409 9.93339 3.68182 9.36998 3.68182 8.7906C3.68182 8.21121 3.78409 7.6478 3.96409 7.12036V4.84277H0.957273C0.347727 6.02952 0 7.3721 0 8.7906C0 10.2091 0.347727 11.5517 0.957273 12.7384L3.96409 10.4608Z"/>
    <path fill="#EA4335" fill-rule="evenodd" clip-rule="evenodd"
          d="M9 3.4963C10.3214 3.4963 11.5077 3.93983 12.4405 4.81091L15.0218 2.28958C13.4632 0.871078 11.4259 0 9 0C5.48182 0 2.43818 1.96992 0.957275 4.84288L3.96409 7.12047C4.67182 5.04266 6.65591 3.4963 9 3.4963Z"/>
</svg>